<svg width="234" height="64" viewBox="0 0 234 64" fill="none" xmlns="http://www.w3.org/2000/svg">
<path d="M0.785156 41.0002V18.4602H6.35016L12.4752 30.9552L18.5652 18.4602H24.0952V41.0002H18.4602V28.0502L14.0152 37.1502H10.9002L6.42016 28.0502V41.0002H0.785156Z" fill="#06004A"/>
<path d="M36.5404 41.3502C33.6471 41.3502 31.3254 40.6385 29.5754 39.2152C27.8254 37.7685 26.9504 35.5985 26.9504 32.7052C26.9504 30.0685 27.6737 27.9685 29.1204 26.4052C30.5671 24.8418 32.7371 24.0602 35.6304 24.0602C38.2671 24.0602 40.3087 24.7368 41.7554 26.0902C43.2021 27.4435 43.9254 29.2635 43.9254 31.5502V34.5252H32.1654C32.4221 35.6218 33.0171 36.3918 33.9504 36.8352C34.9071 37.2552 36.2021 37.4652 37.8354 37.4652C38.7454 37.4652 39.6671 37.3835 40.6004 37.2202C41.5571 37.0568 42.3504 36.8468 42.9804 36.5902V40.2652C42.1871 40.6385 41.2421 40.9068 40.1454 41.0702C39.0487 41.2568 37.8471 41.3502 36.5404 41.3502ZM32.1654 31.2702H39.0254V30.5352C39.0254 29.7185 38.7804 29.0768 38.2904 28.6102C37.8004 28.1202 36.9721 27.8752 35.8054 27.8752C34.4521 27.8752 33.5071 28.1552 32.9704 28.7152C32.4337 29.2518 32.1654 30.1035 32.1654 31.2702Z" fill="#06004A"/>
<path d="M53.756 41.3502C52.146 41.3502 50.7693 41.0935 49.626 40.5802C48.4827 40.0668 47.6077 39.2268 47.001 38.0602C46.3943 36.8702 46.091 35.2835 46.091 33.3002C46.091 31.2935 46.441 29.6135 47.141 28.2602C47.841 26.8835 48.7977 25.8452 50.011 25.1452C51.2477 24.4218 52.6593 24.0602 54.246 24.0602C55.1093 24.0602 55.8793 24.1535 56.556 24.3402C57.256 24.5268 57.9093 24.8068 58.516 25.1802V17.4102H64.151V41.0002H59.286L58.971 39.6002C58.2943 40.1835 57.536 40.6268 56.696 40.9302C55.856 41.2102 54.876 41.3502 53.756 41.3502ZM55.366 37.2552C56.6027 37.2552 57.6527 36.8352 58.516 35.9952V29.2752C57.7227 28.5518 56.7077 28.1902 55.471 28.1902C54.281 28.1902 53.371 28.6452 52.741 29.5552C52.1343 30.4418 51.831 31.7018 51.831 33.3352C51.831 34.9218 52.1227 35.9718 52.706 36.4852C53.3127 36.9985 54.1993 37.2552 55.366 37.2552Z" fill="#06004A"/>
<path d="M67.709 41.0002V18.4602H73.274L79.399 30.9552L85.489 18.4602H91.019V41.0002H85.384V28.0502L80.939 37.1502H77.824L73.344 28.0502V41.0002H67.709Z" fill="#06004A"/>
<path d="M94.8055 21.7852V17.5502H100.931V21.7852H94.8055ZM95.2605 41.0002V28.5752H92.8105L93.3005 24.4102H100.896V41.0002H95.2605Z" fill="#06004A"/>
<path d="M104.486 41.0002V24.4102H109.736L109.911 25.8452C110.588 25.3785 111.44 24.9702 112.466 24.6202C113.493 24.2468 114.59 24.0602 115.756 24.0602C117.903 24.0602 119.466 24.5735 120.446 25.6002C121.426 26.6268 121.916 28.2135 121.916 30.3602V41.0002H116.281V30.8152C116.281 29.8818 116.083 29.2168 115.686 28.8202C115.29 28.4235 114.578 28.2252 113.551 28.2252C112.945 28.2252 112.326 28.3652 111.696 28.6452C111.066 28.9252 110.541 29.2752 110.121 29.6952V41.0002H104.486Z" fill="#06004A"/>
<path d="M132.062 41.3502C130.452 41.3502 129.075 41.0935 127.932 40.5802C126.788 40.0668 125.913 39.2268 125.307 38.0602C124.7 36.8702 124.397 35.2835 124.397 33.3002C124.397 31.2935 124.747 29.6135 125.447 28.2602C126.147 26.8835 127.103 25.8452 128.317 25.1452C129.553 24.4218 130.965 24.0602 132.552 24.0602C133.415 24.0602 134.185 24.1535 134.862 24.3402C135.562 24.5268 136.215 24.8068 136.822 25.1802V17.4102H142.457V41.0002H137.592L137.277 39.6002C136.6 40.1835 135.842 40.6268 135.002 40.9302C134.162 41.2102 133.182 41.3502 132.062 41.3502ZM133.672 37.2552C134.908 37.2552 135.958 36.8352 136.822 35.9952V29.2752C136.028 28.5518 135.013 28.1902 133.777 28.1902C132.587 28.1902 131.677 28.6452 131.047 29.5552C130.44 30.4418 130.137 31.7018 130.137 33.3352C130.137 34.9218 130.428 35.9718 131.012 36.4852C131.618 36.9985 132.505 37.2552 133.672 37.2552Z" fill="#06004A"/>
<path d="M154.563 41.3502C151.67 41.3502 149.348 40.6385 147.598 39.2152C145.848 37.7685 144.973 35.5985 144.973 32.7052C144.973 30.0685 145.696 27.9685 147.143 26.4052C148.59 24.8418 150.76 24.0602 153.653 24.0602C156.29 24.0602 158.331 24.7368 159.778 26.0902C161.225 27.4435 161.948 29.2635 161.948 31.5502V34.5252H150.188C150.445 35.6218 151.04 36.3918 151.973 36.8352C152.93 37.2552 154.225 37.4652 155.858 37.4652C156.768 37.4652 157.69 37.3835 158.623 37.2202C159.58 37.0568 160.373 36.8468 161.003 36.5902V40.2652C160.21 40.6385 159.265 40.9068 158.168 41.0702C157.071 41.2568 155.87 41.3502 154.563 41.3502ZM150.188 31.2702H157.048V30.5352C157.048 29.7185 156.803 29.0768 156.313 28.6102C155.823 28.1202 154.995 27.8752 153.828 27.8752C152.475 27.8752 151.53 28.1552 150.993 28.7152C150.456 29.2518 150.188 30.1035 150.188 31.2702Z" fill="#06004A"/>
<path d="M170.803 41.3502C169.473 41.3502 168.213 41.2568 167.023 41.0702C165.833 40.8835 164.888 40.6502 164.188 40.3702V36.0652C165.004 36.4152 165.949 36.6835 167.023 36.8702C168.096 37.0568 169.053 37.1502 169.893 37.1502C170.896 37.1502 171.619 37.1035 172.063 37.0102C172.529 36.9168 172.763 36.6602 172.763 36.2402C172.763 35.7735 172.389 35.4235 171.643 35.1902C170.896 34.9568 169.869 34.6185 168.563 34.1752C167.046 33.6385 165.891 33.0202 165.098 32.3202C164.328 31.5968 163.943 30.5352 163.943 29.1352C163.943 27.5018 164.549 26.2535 165.763 25.3902C166.999 24.5035 168.959 24.0602 171.643 24.0602C172.693 24.0602 173.731 24.1418 174.758 24.3052C175.784 24.4685 176.624 24.6552 177.278 24.8652V29.1002C176.624 28.7968 175.878 28.5752 175.038 28.4352C174.198 28.2952 173.439 28.2252 172.763 28.2252C171.899 28.2252 171.164 28.2835 170.558 28.4002C169.974 28.4935 169.683 28.7385 169.683 29.1352C169.683 29.5785 170.009 29.8935 170.663 30.0802C171.316 30.2435 172.261 30.5235 173.498 30.9202C174.804 31.3168 175.819 31.7485 176.543 32.2152C177.266 32.6585 177.779 33.1952 178.083 33.8252C178.386 34.4552 178.538 35.2485 178.538 36.2052C178.538 37.8618 177.884 39.1335 176.578 40.0202C175.271 40.9068 173.346 41.3502 170.803 41.3502Z" fill="#06004A"/>
<rect x="203.119" y="23.2617" width="6.98517" height="17.7804" rx="1" fill="#06004A"/>
<rect x="215.506" y="28.6602" width="6.98518" height="17.7804" rx="1" transform="rotate(90 215.506 28.6602)" fill="#06004A"/>
<path d="M219.074 26.878C219.508 26.6962 220.01 26.8998 220.166 27.3439C221.152 30.1617 221.228 33.2269 220.369 36.1014C219.429 39.2486 217.426 41.9724 214.702 43.8086C211.979 45.6449 208.703 46.4799 205.433 46.1715C202.162 45.8631 199.1 44.4304 196.768 42.1174C194.436 39.8044 192.978 36.7543 192.642 33.4867C192.307 30.2191 193.114 26.9363 194.928 24.1976C196.742 21.4589 199.449 19.4337 202.588 18.4672C205.455 17.5844 208.521 17.6346 211.347 18.598C211.792 18.7498 212 19.2499 211.822 19.6853V19.6853C211.643 20.1207 211.147 20.3262 210.7 20.178C208.24 19.3618 205.58 19.3287 203.089 20.0955C200.327 20.9461 197.944 22.7282 196.348 25.1383C194.753 27.5483 194.042 30.4372 194.337 33.3127C194.632 36.1881 195.915 38.8722 197.968 40.9077C200.02 42.9431 202.715 44.2039 205.593 44.4753C208.47 44.7467 211.353 44.0119 213.75 42.396C216.147 40.7801 217.909 38.3832 218.737 35.6136C219.483 33.1169 219.428 30.4566 218.591 28.0036C218.439 27.5583 218.641 27.0599 219.074 26.878V26.878Z" fill="#06004A"/>
<path d="M223.026 25.6036C223.498 25.425 224.027 25.6621 224.182 26.1423C225.381 29.8594 225.359 33.8719 224.106 37.588C222.755 41.5932 220.058 45.0061 216.473 47.2453C212.888 49.4845 208.637 50.4114 204.445 49.868C200.253 49.3246 196.38 47.3446 193.484 44.2653C190.589 41.1861 188.85 37.1981 188.566 32.9809C188.281 28.7636 189.467 24.5781 191.922 21.1374C194.377 17.6968 197.95 15.2139 202.03 14.1118C205.816 13.0893 209.823 13.314 213.459 14.7389C213.929 14.923 214.133 15.4662 213.926 15.9262V15.9262C213.718 16.3861 213.178 16.5884 212.707 16.4069C209.457 15.1542 205.885 14.9633 202.507 15.8756C198.834 16.8675 195.619 19.1021 193.409 22.1987C191.2 25.2953 190.132 29.0622 190.388 32.8577C190.645 36.6532 192.209 40.2424 194.815 43.0138C197.421 45.7851 200.908 47.5671 204.68 48.0562C208.453 48.5452 212.278 47.711 215.505 45.6958C218.731 43.6805 221.159 40.6088 222.375 37.0041C223.493 33.6887 223.522 30.111 222.471 26.79C222.319 26.309 222.554 25.7823 223.026 25.6036V25.6036Z" fill="#06004A"/>
<path d="M228.757 21.4692C229.183 21.1872 229.312 20.618 229.032 20.1903C226.736 16.6737 223.701 13.7456 220.153 11.6326C216.348 9.3664 212.069 8.10657 207.691 7.96303C203.312 7.81949 198.966 8.79659 195.032 10.8091C191.365 12.6852 188.16 15.4079 185.657 18.7661C185.352 19.1762 185.444 19.7527 185.852 20.0616V20.0616C186.284 20.3888 186.9 20.2898 187.226 19.8571C189.541 16.7861 192.491 14.2942 195.859 12.5707C199.518 10.699 203.559 9.79034 207.632 9.92384C211.704 10.0573 215.683 11.229 219.221 13.3365C222.482 15.2785 225.278 17.9608 227.404 21.1799C227.701 21.6302 228.307 21.7672 228.757 21.4692V21.4692Z" fill="#06004A"/>
<path d="M184.938 42.5308C184.512 42.8128 184.384 43.3819 184.663 43.8097C186.959 47.3263 189.995 50.2544 193.543 52.3674C197.348 54.6336 201.626 55.8934 206.005 56.037C210.383 56.1805 214.729 55.2034 218.663 53.1909C222.33 51.3148 225.535 48.5921 228.038 45.2339C228.344 44.8238 228.251 44.2473 227.843 43.9384V43.9384C227.412 43.6112 226.796 43.7102 226.47 44.1429C224.155 47.2139 221.205 49.7058 217.836 51.4293C214.177 53.3009 210.136 54.2097 206.064 54.0762C201.992 53.9427 198.013 52.771 194.474 50.6634C191.213 48.7215 188.418 46.0392 186.291 42.8201C185.994 42.3698 185.388 42.2328 184.938 42.5308V42.5308Z" fill="#06004A"/>
</svg>
