<svg width="15" height="16" viewBox="0 0 15 16" fill="none" xmlns="http://www.w3.org/2000/svg">
<path d="M6.18538 5.47415C6.18538 5.26421 6.35558 5.09401 6.56552 5.09401H8.12866C8.33861 5.09401 8.5088 5.26421 8.5088 5.47415V10.628C8.5088 10.838 8.33861 11.0082 8.12866 11.0082H6.56552C6.35558 11.0082 6.18538 10.838 6.18538 10.628V5.47415Z" fill="url(#paint0_linear_399_3027)"/>
<path d="M9.92589 6.88928C10.1358 6.88928 10.306 7.05948 10.306 7.26942L10.306 8.83256C10.306 9.04251 10.1358 9.2127 9.92589 9.2127H4.77202C4.56207 9.2127 4.39188 9.04251 4.39188 8.83256V7.26942C4.39188 7.05948 4.56207 6.88928 4.77202 6.88928L9.92589 6.88928Z" fill="url(#paint1_linear_399_3027)"/>
<path d="M11.4925 6.29669C11.6369 6.2362 11.8038 6.30395 11.8555 6.45164C12.1837 7.38891 12.2089 8.40848 11.9232 9.36458C11.6104 10.4114 10.9443 11.3174 10.0383 11.9282C9.13242 12.5389 8.04276 12.8167 6.95501 12.7141C5.86726 12.6115 4.84873 12.135 4.07296 11.3656C3.29719 10.5963 2.81219 9.58173 2.70059 8.49487C2.58898 7.40801 2.85769 6.31608 3.46091 5.40513C4.06414 4.49417 4.96456 3.82056 6.00877 3.49907C6.96247 3.20544 7.98221 3.22212 8.92217 3.54258C9.07029 3.59307 9.13942 3.75941 9.08013 3.90423C9.02085 4.04906 8.85562 4.11741 8.70709 4.06813C7.88888 3.79663 7.00389 3.78563 6.17552 4.04068C5.25662 4.32359 4.46425 4.91637 3.93341 5.71801C3.40257 6.51965 3.16611 7.48055 3.26432 8.43699C3.36253 9.39342 3.78934 10.2862 4.47201 10.9632C5.15469 11.6403 6.05099 12.0597 7.00821 12.1499C7.96543 12.2402 8.92434 11.9958 9.72154 11.4583C10.5187 10.9208 11.1049 10.1235 11.3802 9.20233C11.6284 8.37187 11.61 7.487 11.3317 6.67108C11.2812 6.52296 11.3482 6.35717 11.4925 6.29669Z" fill="url(#paint2_linear_399_3027)"/>
<path d="M12.8077 5.87298C12.9647 5.81356 13.1409 5.89243 13.1924 6.05214C13.5911 7.28853 13.5839 8.62319 13.167 9.85922C12.7178 11.1914 11.8205 12.3267 10.628 13.0715C9.43557 13.8163 8.02176 14.1246 6.62749 13.9438C5.23322 13.7631 3.94476 13.1045 2.98163 12.0803C2.01851 11.056 1.44032 9.72954 1.34557 8.3268C1.25083 6.92406 1.6454 5.53187 2.46206 4.38743C3.27871 3.243 4.46692 2.41713 5.82422 2.05055C7.08353 1.71043 8.41611 1.7852 9.62567 2.25915C9.78191 2.32038 9.84981 2.50107 9.78086 2.65406C9.71191 2.80705 9.53223 2.87431 9.37565 2.81396C8.29459 2.39727 7.10623 2.33377 5.98267 2.63722C4.7611 2.96714 3.69171 3.71043 2.95672 4.74042C2.22174 5.77041 1.86662 7.02338 1.95189 8.28585C2.03716 9.54832 2.55753 10.7422 3.42434 11.664C4.29115 12.5858 5.45077 13.1785 6.70562 13.3412C7.96046 13.5038 9.23288 13.2264 10.3061 12.5561C11.3793 11.8857 12.1869 10.864 12.5912 9.66503C12.9631 8.56224 12.9727 7.37222 12.6232 6.2676C12.5726 6.10761 12.6508 5.9324 12.8077 5.87298Z" fill="url(#paint3_linear_399_3027)"/>
<path d="M14.715 4.49705C14.8566 4.40325 14.8994 4.21392 14.8065 4.07165C14.0427 2.90196 13.033 1.92801 11.8529 1.22517C10.5872 0.471387 9.16412 0.0523401 7.70769 0.00459429C6.25126 -0.0431515 4.80576 0.281855 3.49731 0.951257C2.27756 1.57528 1.21145 2.48091 0.378965 3.59793C0.277323 3.73432 0.308124 3.92609 0.443681 4.02883C0.587293 4.13768 0.792199 4.10473 0.900669 3.96083C1.67068 2.93935 2.65183 2.11049 3.77241 1.5372C4.98927 0.914653 6.33359 0.612397 7.68807 0.656801C9.04255 0.701205 10.366 1.09092 11.5431 1.79194C12.6276 2.43788 13.5575 3.33006 14.2647 4.40081C14.3637 4.5506 14.5653 4.59614 14.715 4.49705Z" fill="url(#paint4_linear_399_3027)"/>
<path d="M0.14082 11.503C-0.00085993 11.5968 -0.0435887 11.7861 0.0493093 11.9283C0.813066 13.098 1.82282 14.072 3.0029 14.7748C4.26854 15.5286 5.69165 15.9477 7.14809 15.9954C8.60452 16.0432 10.05 15.7181 11.3585 15.0487C12.5782 14.4247 13.6443 13.5191 14.4768 12.4021C14.5785 12.2657 14.5477 12.0739 14.4121 11.9712C14.2685 11.8623 14.0636 11.8953 13.9551 12.0392C13.1851 13.0607 12.204 13.8895 11.0834 14.4628C9.8665 15.0853 8.52219 15.3876 7.16771 15.3432C5.81323 15.2988 4.48973 14.9091 3.31269 14.2081C2.22813 13.5621 1.29828 12.6699 0.591031 11.5992C0.492098 11.4494 0.290498 11.4039 0.14082 11.503Z" fill="url(#paint5_linear_399_3027)"/>
<defs>
<linearGradient id="paint0_linear_399_3027" x1="7.42789" y1="0" x2="7.42789" y2="16" gradientUnits="userSpaceOnUse">
<stop stop-color="#3171C1"/>
<stop offset="1" stop-color="#06004A"/>
</linearGradient>
<linearGradient id="paint1_linear_399_3027" x1="7.42789" y1="0" x2="7.42789" y2="16" gradientUnits="userSpaceOnUse">
<stop stop-color="#3171C1"/>
<stop offset="1" stop-color="#06004A"/>
</linearGradient>
<linearGradient id="paint2_linear_399_3027" x1="7.42789" y1="0" x2="7.42789" y2="16" gradientUnits="userSpaceOnUse">
<stop stop-color="#3171C1"/>
<stop offset="1" stop-color="#06004A"/>
</linearGradient>
<linearGradient id="paint3_linear_399_3027" x1="7.42789" y1="0" x2="7.42789" y2="16" gradientUnits="userSpaceOnUse">
<stop stop-color="#3171C1"/>
<stop offset="1" stop-color="#06004A"/>
</linearGradient>
<linearGradient id="paint4_linear_399_3027" x1="7.42789" y1="0" x2="7.42789" y2="16" gradientUnits="userSpaceOnUse">
<stop stop-color="#3171C1"/>
<stop offset="1" stop-color="#06004A"/>
</linearGradient>
<linearGradient id="paint5_linear_399_3027" x1="7.42789" y1="0" x2="7.42789" y2="16" gradientUnits="userSpaceOnUse">
<stop stop-color="#3171C1"/>
<stop offset="1" stop-color="#06004A"/>
</linearGradient>
</defs>
</svg>
