<svg width="24" height="6" viewBox="0 0 24 6" fill="none" xmlns="http://www.w3.org/2000/svg">
<path d="M3 6C4.65686 6 6 4.6568 6 3C6 1.34314 4.65686 2.03558e-07 3 1.31134e-07C1.34314 5.87105e-08 -5.87105e-08 1.34314 -1.31134e-07 3C-2.03555e-07 4.6568 1.34314 6 3 6Z" fill="#8A8A8A"/>
<path d="M12 6C13.6568 6 15 4.6568 15 3C15 1.34314 13.6568 2.03555e-07 12 1.31134e-07C10.3431 5.87105e-08 9 1.34314 9 3C9 4.6568 10.3431 6 12 6Z" fill="#8A8A8A"/>
<path d="M24 3C24 4.6568 22.6568 6 21 6C19.3432 6 18 4.6568 18 3C18 1.34314 19.3432 5.87131e-08 21 1.31134e-07C22.6568 2.03555e-07 24 1.34314 24 3Z" fill="#8A8A8A"/>
</svg>
