<svg width="30" height="30" viewBox="0 0 30 30" fill="none" xmlns="http://www.w3.org/2000/svg">
<g clip-path="url(#clip0_123_3)">
<circle cx="15" cy="15" r="12.75" fill="#FE6C72"/>
<path fill-rule="evenodd" clip-rule="evenodd" d="M9.64395 9.74942C10.0833 9.31009 10.7956 9.31009 11.2349 9.74942L15.0003 13.5148L18.7657 9.74948C19.2051 9.31013 19.9173 9.31013 20.3566 9.74948C20.796 10.1888 20.796 10.9011 20.3566 11.3405L16.5913 15.1057L20.2506 18.765C20.6899 19.2043 20.6899 19.9167 20.2506 20.356C19.8112 20.7954 19.0989 20.7954 18.6595 20.356L15.0003 16.6968L11.3411 20.356C10.9017 20.7954 10.1894 20.7954 9.75008 20.356C9.31073 19.9167 9.31073 19.2045 9.75008 18.7651L13.4094 15.1057L9.64395 11.3404C9.20462 10.9011 9.20462 10.1888 9.64395 9.74942Z" fill="#2E374D"/>
</g>
<defs>
<clipPath id="clip0_123_3">
<rect width="30" height="30" fill="white"/>
</clipPath>
</defs>
</svg>
