<svg width="30" height="30" viewBox="0 0 30 30" fill="none" xmlns="http://www.w3.org/2000/svg">
<g clip-path="url(#clip0_123_319)">
<circle cx="15" cy="15" r="12.75" fill="#41D1AF"/>
<path d="M10.5455 15.7048L12.3793 17.5386C13.8133 14.5226 15.4758 12.5735 16.8841 11.3412C17.6995 10.6278 18.4233 10.1602 18.9579 9.86613C19.225 9.71917 19.4446 9.6157 19.6048 9.54658C19.6848 9.51202 19.7499 9.48604 19.7986 9.4675C19.8231 9.45823 19.8433 9.45082 19.8594 9.44512L19.8801 9.43785L19.888 9.43513L19.8913 9.43401L19.8942 9.43303C20.4837 9.23656 21.1207 9.55512 21.3172 10.1445C21.5128 10.7311 21.1974 11.3653 20.6134 11.565L20.5987 11.5705C20.5801 11.5776 20.5456 11.5911 20.4967 11.6122C20.3991 11.6544 20.2437 11.7267 20.0421 11.8376C19.6392 12.0592 19.0504 12.4353 18.3658 13.0345C17.0013 14.2284 15.2295 16.3308 13.7945 19.918C13.6541 20.2692 13.3466 20.5263 12.9762 20.6023C12.6058 20.6784 12.2219 20.5632 11.9545 20.2957L8.9545 17.2957C8.51517 16.8564 8.51517 16.1442 8.9545 15.7048C9.39384 15.2655 10.1062 15.2655 10.5455 15.7048Z" fill="#2E374D"/>
</g>
<defs>
<clipPath id="clip0_123_319">
<rect width="30" height="30" fill="white"/>
</clipPath>
</defs>
</svg>
