<svg width="30" height="30" viewBox="0 0 30 30" fill="none" xmlns="http://www.w3.org/2000/svg">
<circle cx="14.8711" cy="15" r="12.75" fill="#63A8FF"/>
<path d="M14.7685 17.8955C14.7685 17.2055 14.7175 16.4825 14.6155 15.7265C14.5135 14.9645 14.3725 14.1515 14.1925 13.2875C14.0065 12.3695 13.8745 11.6405 13.7965 11.1005C13.7245 10.5605 13.6885 10.0895 13.6885 9.68752C13.6885 9.23752 13.8325 8.86252 14.1205 8.56252C14.4085 8.25652 14.8075 8.10352 15.3175 8.10352C15.8875 8.10352 16.2955 8.25952 16.5415 8.57151C16.7935 8.87751 16.9195 9.23452 16.9195 9.64252C16.9195 9.94252 16.9015 10.2575 16.8655 10.5875C16.8355 10.9175 16.7845 11.3015 16.7125 11.7395C16.6405 12.1775 16.5385 12.7115 16.4065 13.3415C16.2265 14.1875 16.0855 14.9885 15.9835 15.7445C15.8875 16.5005 15.8395 17.2175 15.8395 17.8955H14.7685ZM15.2725 22.1885C14.7805 22.1885 14.4025 22.0355 14.1385 21.7295C13.8805 21.4175 13.7515 21.0785 13.7515 20.7125C13.7515 20.3225 13.8865 19.9805 14.1565 19.6865C14.4265 19.3865 14.7985 19.2365 15.2725 19.2365C15.7705 19.2365 16.1605 19.3865 16.4425 19.6865C16.7245 19.9805 16.8655 20.3225 16.8655 20.7125C16.8655 21.0785 16.7335 21.4175 16.4695 21.7295C16.2055 22.0355 15.8065 22.1885 15.2725 22.1885Z" fill="#2E374D"/>
</svg>
