<svg width="80" height="86" viewBox="0 0 80 86" fill="none" xmlns="http://www.w3.org/2000/svg">
<path d="M33.449 29.71C33.449 28.6054 34.3444 27.71 35.449 27.71H43.673C44.7776 27.71 45.673 28.6054 45.673 29.71V56.8257C45.673 57.9303 44.7776 58.8257 43.673 58.8257H35.449C34.3444 58.8257 33.449 57.9303 33.449 56.8257V29.71Z" fill="#06004A"/>
<path d="M53.1287 37.1553C54.2332 37.1553 55.1287 38.0507 55.1287 39.1553L55.1287 47.3793C55.1287 48.4839 54.2332 49.3793 53.1287 49.3793H26.0129C24.9084 49.3793 24.0129 48.4839 24.0129 47.3793V39.1553C24.0129 38.0507 24.9084 37.1553 26.0129 37.1553L53.1287 37.1553Z" fill="#06004A"/>
<path d="M61.3711 34.0375C62.1305 33.7193 63.0086 34.0757 63.2807 34.8528C65.0077 39.7839 65.14 45.1481 63.6369 50.1784C61.9911 55.6861 58.4865 60.4527 53.7203 63.666C48.954 66.8794 43.221 68.3408 37.4981 67.8011C31.7753 67.2614 26.4165 64.7541 22.335 60.7064C18.2536 56.6586 15.7018 51.3209 15.1147 45.6027C14.5275 39.8845 15.9412 34.1395 19.1149 29.3468C22.2886 24.5541 27.026 21.01 32.5198 19.3186C37.5374 17.7737 42.9025 17.8615 47.8478 19.5475C48.6271 19.8132 48.9908 20.6883 48.6789 21.4502C48.367 22.2122 47.4977 22.5718 46.7163 22.3125C42.4115 20.8841 37.7553 20.8263 33.3971 22.1681C28.5626 23.6566 24.3937 26.7753 21.6008 30.9929C18.808 35.2106 17.5639 40.2661 18.0806 45.2981C18.5973 50.3301 20.8428 55.0273 24.4345 58.5894C28.0263 62.1514 32.7419 64.3578 37.7781 64.8327C42.8142 65.3077 47.8592 64.0217 52.0535 61.1939C56.2478 58.3661 59.3318 54.1715 60.7801 49.3248C62.0858 44.9555 61.9892 40.3 60.5252 36.0073C60.2594 35.228 60.6118 34.3557 61.3711 34.0375Z" fill="#06004A"/>
<path d="M68.2908 31.8083C69.1164 31.4956 70.0433 31.9106 70.3143 32.7509C72.4122 39.2558 72.3742 46.2778 70.1811 52.7808C67.8173 59.7899 63.0964 65.7626 56.8227 69.6812C50.549 73.5998 43.1106 75.2218 35.775 74.2709C28.4394 73.32 21.6605 69.8549 16.5933 64.4662C11.5261 59.0775 8.48408 52.0985 7.98563 44.7184C7.48717 37.3383 9.5631 30.0136 13.8597 23.9925C18.1563 17.9713 24.4077 13.6262 31.5488 11.6976C38.1743 9.90815 45.1853 10.3015 51.5491 12.7951C52.3711 13.1172 52.7284 14.0679 52.3656 14.8728C52.0028 15.6777 51.0575 16.0316 50.2337 15.7141C44.546 13.5218 38.2937 13.1877 32.3825 14.7842C25.9555 16.52 20.3292 20.4306 16.4623 25.8496C12.5953 31.2686 10.727 37.8608 11.1756 44.5029C11.6242 51.1451 14.362 57.4262 18.9225 62.276C23.483 67.1258 29.584 70.2443 36.186 71.1002C42.7881 71.956 49.4826 70.4962 55.1289 66.9695C60.7753 63.4427 65.0241 58.0673 67.1515 51.7591C69.1082 45.9571 69.1588 39.6961 67.3201 33.8845C67.0538 33.0427 67.4651 32.1209 68.2908 31.8083Z" fill="#06004A"/>
<path d="M78.325 24.5692C79.0704 24.0757 79.2953 23.0796 78.8065 22.3311C74.7882 16.1771 69.4757 11.0529 63.2669 7.35511C56.6081 3.38926 49.1208 1.18455 41.4582 0.933351C33.7956 0.68215 26.1905 2.39208 19.3064 5.91396C12.889 9.19708 7.27997 13.9618 2.90007 19.8387C2.36531 20.5563 2.52736 21.5653 3.24056 22.1058C3.99614 22.6785 5.07419 22.5051 5.64488 21.748C9.69607 16.3738 14.8581 12.0129 20.7538 8.99673C27.156 5.72138 34.2287 4.13114 41.355 4.36476C48.4812 4.59838 55.4444 6.64875 61.6371 10.337C67.3432 13.7355 72.2354 18.4294 75.9564 24.0629C76.4769 24.8509 77.5375 25.0906 78.325 24.5692Z" fill="#06004A"/>
<path d="M1.64714 61.4289C0.901726 61.9224 0.67692 62.9184 1.16568 63.667C5.18398 69.821 10.4965 74.9451 16.7052 78.6429C23.364 82.6088 30.8514 84.8135 38.514 85.0647C46.1766 85.3159 53.7817 83.606 60.6658 80.0841C67.0832 76.801 72.6922 72.0362 77.0721 66.1593C77.6069 65.4418 77.4448 64.4328 76.7316 63.8923C75.976 63.3196 74.898 63.493 74.3273 64.25C70.2761 69.6243 65.114 73.9851 59.2184 77.0013C52.8162 80.2767 45.7435 81.8669 38.6172 81.6333C31.491 81.3997 24.5278 79.3493 18.3351 75.661C12.6289 72.2626 7.73678 67.5687 4.0158 61.9352C3.49529 61.1471 2.43463 60.9075 1.64714 61.4289Z" fill="#06004A"/>
</svg>
