<svg width="442" height="124" viewBox="0 0 442 124" fill="none" xmlns="http://www.w3.org/2000/svg">
<path d="M21.058 24.9998H15.773V14.2198H5.86801V24.9998H0.583008V0.00976562H5.86801V9.80977H15.773V0.00976562H21.058V24.9998Z" fill="#06004A"/>
<path d="M34.7657 5.50477C37.3324 5.50477 39.2924 6.06477 40.6457 7.18477C42.0224 8.28143 42.7107 9.9731 42.7107 12.2598V24.9998H39.0707L38.0557 22.4098H37.9157C37.379 23.0864 36.819 23.6464 36.2357 24.0898C35.6757 24.5331 35.0224 24.8481 34.2757 25.0348C33.5524 25.2448 32.654 25.3498 31.5807 25.3498C30.4607 25.3498 29.4457 25.1398 28.5357 24.7198C27.649 24.2764 26.949 23.6114 26.4357 22.7248C25.9224 21.8148 25.6657 20.6714 25.6657 19.2948C25.6657 17.2648 26.3774 15.7714 27.8007 14.8148C29.224 13.8348 31.359 13.2981 34.2057 13.2048L37.5307 13.0998V12.2598C37.5307 11.2564 37.2624 10.5214 36.7257 10.0548C36.2124 9.5881 35.489 9.35477 34.5557 9.35477C33.6224 9.35477 32.7124 9.49477 31.8257 9.77477C30.939 10.0314 30.0524 10.3581 29.1657 10.7548L27.4507 7.21977C28.4774 6.6831 29.609 6.2631 30.8457 5.95977C32.1057 5.65643 33.4124 5.50477 34.7657 5.50477ZM35.5007 16.2148C33.8207 16.2614 32.654 16.5648 32.0007 17.1248C31.3474 17.6848 31.0207 18.4198 31.0207 19.3298C31.0207 20.1231 31.254 20.6948 31.7207 21.0448C32.1874 21.3714 32.794 21.5348 33.5407 21.5348C34.6607 21.5348 35.6057 21.2081 36.3757 20.5548C37.1457 19.8781 37.5307 18.9331 37.5307 17.7198V16.1448L35.5007 16.2148Z" fill="#06004A"/>
<path d="M52.6338 12.8898C52.6338 13.7064 52.8321 14.3248 53.2288 14.7448C53.6488 15.1648 54.2204 15.3748 54.9437 15.3748C55.9471 15.3748 56.8804 15.2698 57.7438 15.0598C58.6071 14.8264 59.4704 14.5231 60.3338 14.1498V5.88977H65.5488V24.9998H60.3338V17.4048C59.5171 17.8481 58.5837 18.2564 57.5337 18.6298C56.4837 18.9798 55.2937 19.1548 53.9637 19.1548C51.9804 19.1548 50.3938 18.6414 49.2038 17.6148C48.0138 16.5881 47.4188 15.0481 47.4188 12.9948V5.88977H52.6338V12.8898Z" fill="#06004A"/>
<path d="M78.8575 5.50477C81.4242 5.50477 83.3842 6.06477 84.7375 7.18477C86.1142 8.28143 86.8025 9.9731 86.8025 12.2598V24.9998H83.1625L82.1475 22.4098H82.0075C81.4708 23.0864 80.9108 23.6464 80.3275 24.0898C79.7675 24.5331 79.1142 24.8481 78.3675 25.0348C77.6442 25.2448 76.7458 25.3498 75.6725 25.3498C74.5525 25.3498 73.5375 25.1398 72.6275 24.7198C71.7408 24.2764 71.0408 23.6114 70.5275 22.7248C70.0142 21.8148 69.7575 20.6714 69.7575 19.2948C69.7575 17.2648 70.4692 15.7714 71.8925 14.8148C73.3158 13.8348 75.4508 13.2981 78.2975 13.2048L81.6225 13.0998V12.2598C81.6225 11.2564 81.3542 10.5214 80.8175 10.0548C80.3042 9.5881 79.5808 9.35477 78.6475 9.35477C77.7142 9.35477 76.8042 9.49477 75.9175 9.77477C75.0308 10.0314 74.1442 10.3581 73.2575 10.7548L71.5425 7.21977C72.5692 6.6831 73.7008 6.2631 74.9375 5.95977C76.1975 5.65643 77.5042 5.50477 78.8575 5.50477ZM79.5925 16.2148C77.9125 16.2614 76.7458 16.5648 76.0925 17.1248C75.4392 17.6848 75.1125 18.4198 75.1125 19.3298C75.1125 20.1231 75.3458 20.6948 75.8125 21.0448C76.2792 21.3714 76.8858 21.5348 77.6325 21.5348C78.7525 21.5348 79.6975 21.2081 80.4675 20.5548C81.2375 19.8781 81.6225 18.9331 81.6225 17.7198V16.1448L79.5925 16.2148Z" fill="#06004A"/>
<path d="M107.961 9.80977H101.696V24.9998H96.4805V9.80977H90.2155V5.88977H107.961V9.80977Z" fill="#06004A"/>
<path d="M120.376 13.2748C122.336 13.2748 123.958 13.4848 125.241 13.9048C126.525 14.3014 127.47 14.9198 128.076 15.7598C128.706 16.5998 129.021 17.6498 129.021 18.9098C129.021 20.1464 128.73 21.2198 128.146 22.1298C127.586 23.0398 126.688 23.7514 125.451 24.2648C124.215 24.7548 122.593 24.9998 120.586 24.9998H111.486V5.88977H116.701V13.2748H120.376ZM123.806 18.9798C123.806 18.2331 123.503 17.6964 122.896 17.3698C122.313 17.0431 121.438 16.8798 120.271 16.8798H116.701V21.3948H120.341C121.368 21.3948 122.196 21.2081 122.826 20.8348C123.48 20.4614 123.806 19.8431 123.806 18.9798Z" fill="#06004A"/>
<path d="M145.545 13.4498C145.545 13.8464 145.521 14.3364 145.475 14.9198C145.451 15.5031 145.416 16.0981 145.37 16.7048C145.346 17.3114 145.311 17.8481 145.265 18.3148C145.218 18.7814 145.183 19.1081 145.16 19.2948L153.98 5.88977H160.245V24.9998H155.205V17.3698C155.205 16.7398 155.228 16.0514 155.275 15.3048C155.321 14.5348 155.368 13.8231 155.415 13.1698C155.485 12.4931 155.531 11.9798 155.555 11.6298L146.77 24.9998H140.505V5.88977H145.545V13.4498Z" fill="#06004A"/>
<path d="M173.465 25.3498C171.575 25.3498 169.965 25.0114 168.635 24.3348C167.305 23.6348 166.29 22.5614 165.59 21.1148C164.89 19.6681 164.54 17.8131 164.54 15.5498C164.54 13.2164 164.937 11.3148 165.73 9.84477C166.524 8.37477 167.62 7.28977 169.02 6.58977C170.444 5.88977 172.077 5.53977 173.92 5.53977C175.227 5.53977 176.359 5.6681 177.315 5.92477C178.295 6.18143 179.147 6.48477 179.87 6.83477L178.33 10.8598C177.514 10.5331 176.744 10.2648 176.02 10.0548C175.32 9.84477 174.62 9.73977 173.92 9.73977C173.01 9.73977 172.252 9.96143 171.645 10.4048C171.039 10.8248 170.584 11.4664 170.28 12.3298C170 13.1698 169.86 14.2314 169.86 15.5148C169.86 16.7748 170.012 17.8248 170.315 18.6648C170.642 19.4814 171.109 20.0998 171.715 20.5198C172.322 20.9164 173.057 21.1148 173.92 21.1148C175.017 21.1148 175.985 20.9748 176.825 20.6948C177.665 20.3914 178.482 19.9831 179.275 19.4698V23.9148C178.482 24.4281 177.642 24.7898 176.755 24.9998C175.892 25.2331 174.795 25.3498 173.465 25.3498Z" fill="#06004A"/>
<path d="M201.034 5.88977V24.9998H195.819V9.80977H188.889V24.9998H183.674V5.88977H201.034Z" fill="#06004A"/>
<path d="M223.866 15.4098C223.866 16.9964 223.644 18.4081 223.201 19.6448C222.781 20.8814 222.162 21.9314 221.346 22.7948C220.552 23.6348 219.584 24.2764 218.441 24.7198C217.297 25.1398 216.002 25.3498 214.556 25.3498C213.226 25.3498 211.989 25.1398 210.846 24.7198C209.726 24.2764 208.757 23.6348 207.941 22.7948C207.124 21.9314 206.482 20.8814 206.016 19.6448C205.572 18.4081 205.351 16.9964 205.351 15.4098C205.351 13.2864 205.724 11.5014 206.471 10.0548C207.217 8.58477 208.291 7.46477 209.691 6.69477C211.091 5.92477 212.747 5.53977 214.661 5.53977C216.457 5.53977 218.044 5.92477 219.421 6.69477C220.797 7.46477 221.882 8.58477 222.676 10.0548C223.469 11.5014 223.866 13.2864 223.866 15.4098ZM210.671 15.4098C210.671 16.6698 210.799 17.7314 211.056 18.5948C211.336 19.4348 211.767 20.0764 212.351 20.5198C212.934 20.9398 213.692 21.1498 214.626 21.1498C215.559 21.1498 216.306 20.9398 216.866 20.5198C217.449 20.0764 217.869 19.4348 218.126 18.5948C218.406 17.7314 218.546 16.6698 218.546 15.4098C218.546 14.1498 218.406 13.0998 218.126 12.2598C217.869 11.4198 217.449 10.7898 216.866 10.3698C216.282 9.94977 215.524 9.73977 214.591 9.73977C213.214 9.73977 212.211 10.2181 211.581 11.1748C210.974 12.1081 210.671 13.5198 210.671 15.4098Z" fill="#06004A"/>
<path d="M245.291 24.9998H240.076V9.80977H235.281C235.047 12.6098 234.756 15.0014 234.406 16.9848C234.079 18.9448 233.659 20.5431 233.146 21.7798C232.656 23.0164 232.026 23.9264 231.256 24.5098C230.486 25.0698 229.541 25.3498 228.421 25.3498C227.814 25.3498 227.266 25.3031 226.776 25.2098C226.286 25.1164 225.842 24.9764 225.446 24.7898V20.6248C225.702 20.7181 225.971 20.7998 226.251 20.8698C226.531 20.9398 226.822 20.9748 227.126 20.9748C227.452 20.9748 227.756 20.8464 228.036 20.5898C228.339 20.3331 228.619 19.8781 228.876 19.2248C229.156 18.5714 229.412 17.6731 229.646 16.5298C229.879 15.3864 230.089 13.9514 230.276 12.2248C230.486 10.4748 230.672 8.3631 230.836 5.88977H245.291V24.9998Z" fill="#06004A"/>
<path d="M259.624 13.2748C261.584 13.2748 263.206 13.4848 264.489 13.9048C265.773 14.3014 266.718 14.9198 267.324 15.7598C267.954 16.5998 268.269 17.6498 268.269 18.9098C268.269 20.1464 267.978 21.2198 267.394 22.1298C266.834 23.0398 265.936 23.7514 264.699 24.2648C263.463 24.7548 261.841 24.9998 259.834 24.9998H250.734V5.88977H255.949V13.2748H259.624ZM263.054 18.9798C263.054 18.2331 262.751 17.6964 262.144 17.3698C261.561 17.0431 260.686 16.8798 259.519 16.8798H255.949V21.3948H259.589C260.616 21.3948 261.444 21.2081 262.074 20.8348C262.728 20.4614 263.054 19.8431 263.054 18.9798Z" fill="#06004A"/>
<path d="M279.198 5.53977C280.575 5.53977 281.858 5.72643 283.048 6.09977C284.262 6.44977 285.23 6.9981 285.953 7.74477C286.7 8.49143 287.073 9.4481 287.073 10.6148C287.073 11.7581 286.723 12.6681 286.023 13.3448C285.347 14.0214 284.425 14.5114 283.258 14.8148V14.9898C284.075 15.1764 284.81 15.4448 285.463 15.7948C286.117 16.1214 286.63 16.5764 287.003 17.1598C287.4 17.7198 287.598 18.4781 287.598 19.4348C287.598 20.4848 287.26 21.4648 286.583 22.3748C285.93 23.2614 284.903 23.9848 283.503 24.5448C282.127 25.0814 280.353 25.3498 278.183 25.3498C277.157 25.3498 276.188 25.3031 275.278 25.2098C274.368 25.1164 273.54 24.9881 272.793 24.8248C272.047 24.6381 271.393 24.4164 270.833 24.1598V19.8548C271.627 20.2281 272.595 20.5664 273.738 20.8698C274.905 21.1731 276.142 21.3248 277.448 21.3248C278.405 21.3248 279.257 21.2548 280.003 21.1148C280.773 20.9748 281.38 20.7414 281.823 20.4148C282.29 20.0881 282.523 19.6564 282.523 19.1198C282.523 18.6064 282.325 18.1864 281.928 17.8598C281.532 17.5098 280.937 17.2531 280.143 17.0898C279.35 16.9264 278.335 16.8448 277.098 16.8448H275.068V13.2398H276.993C278.72 13.2398 280.05 13.0998 280.983 12.8198C281.94 12.5398 282.418 12.0148 282.418 11.2448C282.418 10.6381 282.115 10.1831 281.508 9.87977C280.902 9.5531 279.91 9.38977 278.533 9.38977C277.623 9.38977 276.632 9.49477 275.558 9.70477C274.485 9.91477 273.47 10.2181 272.513 10.6148L270.973 6.97477C272.07 6.55477 273.272 6.21643 274.578 5.95977C275.885 5.67977 277.425 5.53977 279.198 5.53977Z" fill="#06004A"/>
<path d="M309.007 15.4098C309.007 16.9964 308.786 18.4081 308.342 19.6448C307.922 20.8814 307.304 21.9314 306.487 22.7948C305.694 23.6348 304.726 24.2764 303.582 24.7198C302.439 25.1398 301.144 25.3498 299.697 25.3498C298.367 25.3498 297.131 25.1398 295.987 24.7198C294.867 24.2764 293.899 23.6348 293.082 22.7948C292.266 21.9314 291.624 20.8814 291.157 19.6448C290.714 18.4081 290.492 16.9964 290.492 15.4098C290.492 13.2864 290.866 11.5014 291.612 10.0548C292.359 8.58477 293.432 7.46477 294.832 6.69477C296.232 5.92477 297.889 5.53977 299.802 5.53977C301.599 5.53977 303.186 5.92477 304.562 6.69477C305.939 7.46477 307.024 8.58477 307.817 10.0548C308.611 11.5014 309.007 13.2864 309.007 15.4098ZM295.812 15.4098C295.812 16.6698 295.941 17.7314 296.197 18.5948C296.477 19.4348 296.909 20.0764 297.492 20.5198C298.076 20.9398 298.834 21.1498 299.767 21.1498C300.701 21.1498 301.447 20.9398 302.007 20.5198C302.591 20.0764 303.011 19.4348 303.267 18.5948C303.547 17.7314 303.687 16.6698 303.687 15.4098C303.687 14.1498 303.547 13.0998 303.267 12.2598C303.011 11.4198 302.591 10.7898 302.007 10.3698C301.424 9.94977 300.666 9.73977 299.732 9.73977C298.356 9.73977 297.352 10.2181 296.722 11.1748C296.116 12.1081 295.812 13.5198 295.812 15.4098Z" fill="#06004A"/>
<path d="M330.257 10.8948C330.257 11.9214 329.931 12.7964 329.277 13.5198C328.647 14.2431 327.702 14.7098 326.442 14.9198V15.0598C327.772 15.2231 328.834 15.6781 329.627 16.4248C330.444 17.1714 330.852 18.1281 330.852 19.2948C330.852 20.1114 330.689 20.8698 330.362 21.5698C330.059 22.2698 329.569 22.8764 328.892 23.3898C328.216 23.9031 327.341 24.2998 326.267 24.5798C325.217 24.8598 323.934 24.9998 322.417 24.9998H313.317V5.88977H322.417C323.911 5.88977 325.241 6.0531 326.407 6.37977C327.597 6.6831 328.531 7.19643 329.207 7.91977C329.907 8.6431 330.257 9.63477 330.257 10.8948ZM325.462 19.0148C325.462 18.2681 325.171 17.7314 324.587 17.4048C324.004 17.0548 323.129 16.8798 321.962 16.8798H318.532V21.3948H322.067C323.047 21.3948 323.852 21.2198 324.482 20.8698C325.136 20.4964 325.462 19.8781 325.462 19.0148ZM324.972 11.3148C324.972 10.7081 324.739 10.2648 324.272 9.98477C323.806 9.70477 323.117 9.56477 322.207 9.56477H318.532V13.3448H321.612C322.709 13.3448 323.537 13.1931 324.097 12.8898C324.681 12.5631 324.972 12.0381 324.972 11.3148Z" fill="#06004A"/>
<path d="M343.169 5.50477C345.736 5.50477 347.696 6.06477 349.049 7.18477C350.426 8.28143 351.114 9.9731 351.114 12.2598V24.9998H347.474L346.459 22.4098H346.319C345.782 23.0864 345.222 23.6464 344.639 24.0898C344.079 24.5331 343.426 24.8481 342.679 25.0348C341.956 25.2448 341.057 25.3498 339.984 25.3498C338.864 25.3498 337.849 25.1398 336.939 24.7198C336.052 24.2764 335.352 23.6114 334.839 22.7248C334.326 21.8148 334.069 20.6714 334.069 19.2948C334.069 17.2648 334.781 15.7714 336.204 14.8148C337.627 13.8348 339.762 13.2981 342.609 13.2048L345.934 13.0998V12.2598C345.934 11.2564 345.666 10.5214 345.129 10.0548C344.616 9.5881 343.892 9.35477 342.959 9.35477C342.026 9.35477 341.116 9.49477 340.229 9.77477C339.342 10.0314 338.456 10.3581 337.569 10.7548L335.854 7.21977C336.881 6.6831 338.012 6.2631 339.249 5.95977C340.509 5.65643 341.816 5.50477 343.169 5.50477ZM343.904 16.2148C342.224 16.2614 341.057 16.5648 340.404 17.1248C339.751 17.6848 339.424 18.4198 339.424 19.3298C339.424 20.1231 339.657 20.6948 340.124 21.0448C340.591 21.3714 341.197 21.5348 341.944 21.5348C343.064 21.5348 344.009 21.2081 344.779 20.5548C345.549 19.8781 345.934 18.9331 345.934 17.7198V16.1448L343.904 16.2148Z" fill="#06004A"/>
<path d="M372.272 9.80977H366.007V24.9998H360.792V9.80977H354.527V5.88977H372.272V9.80977Z" fill="#06004A"/>
<path d="M384.688 13.2748C386.648 13.2748 388.269 13.4848 389.553 13.9048C390.836 14.3014 391.781 14.9198 392.388 15.7598C393.018 16.5998 393.333 17.6498 393.333 18.9098C393.333 20.1464 393.041 21.2198 392.458 22.1298C391.898 23.0398 390.999 23.7514 389.763 24.2648C388.526 24.7548 386.904 24.9998 384.898 24.9998H375.798V5.88977H381.013V13.2748H384.688ZM388.118 18.9798C388.118 18.2331 387.814 17.6964 387.208 17.3698C386.624 17.0431 385.749 16.8798 384.583 16.8798H381.013V21.3948H384.653C385.679 21.3948 386.508 21.2081 387.138 20.8348C387.791 20.4614 388.118 19.8431 388.118 18.9798Z" fill="#06004A"/>
<path d="M395.468 88.5779C395.468 87.4733 396.364 86.5779 397.468 86.5779H405.665C406.769 86.5779 407.665 87.4733 407.665 88.5779V94.8408C407.665 95.9454 406.769 96.8408 405.665 96.8408H397.468C396.364 96.8408 395.468 95.9454 395.468 94.8408V88.5779Z" fill="#06004A"/>
<path d="M395.468 67.7537C395.468 66.6491 396.364 65.7537 397.468 65.7537H405.665C406.769 65.7537 407.665 66.6491 407.665 67.7537V74.0166C407.665 75.1212 406.769 76.0166 405.665 76.0166H397.468C396.364 76.0166 395.468 75.1212 395.468 74.0166V67.7537Z" fill="#06004A"/>
<path d="M415.148 75.154C416.253 75.154 417.148 76.0495 417.148 77.154V85.3781C417.148 86.4827 416.253 87.3781 415.148 87.3781H388.032C386.928 87.3781 386.032 86.4827 386.032 85.3781V77.154C386.032 76.0495 386.928 75.154 388.032 75.154L415.148 75.154Z" fill="#06004A"/>
<path d="M423.383 72.0381C424.142 71.7198 425.02 72.0763 425.292 72.8533C427.019 77.7845 427.152 83.1487 425.648 88.179C424.003 93.6866 420.498 98.4532 415.732 101.667C410.966 104.88 405.233 106.341 399.51 105.802C393.787 105.262 388.428 102.755 384.347 98.7069C380.265 94.6592 377.713 89.3215 377.126 83.6032C376.539 77.885 377.953 72.1401 381.126 67.3473C384.3 62.5546 389.038 59.0106 394.531 57.3191C399.549 55.7742 404.914 55.862 409.859 57.548C410.639 57.8137 411.002 58.6888 410.691 59.4508C410.379 60.2127 409.509 60.5723 408.728 60.313C404.423 58.8847 399.767 58.8268 395.409 60.1686C390.574 61.6571 386.405 64.7759 383.612 68.9935C380.819 73.2111 379.575 78.2666 380.092 83.2987C380.609 88.3307 382.854 93.0279 386.446 96.5899C390.038 100.152 394.753 102.358 399.79 102.833C404.826 103.308 409.871 102.022 414.065 99.1945C418.259 96.3667 421.343 92.1721 422.792 87.3253C424.097 82.9561 424.001 78.3006 422.537 74.0078C422.271 73.2285 422.623 72.3563 423.383 72.0381Z" fill="#06004A"/>
<path d="M430.298 69.8071C431.124 69.4944 432.051 69.9094 432.322 70.7497C434.42 77.2547 434.382 84.2766 432.189 90.7797C429.825 97.7888 425.104 103.761 418.83 107.68C412.557 111.599 405.118 113.221 397.783 112.27C390.447 111.319 383.668 107.854 378.601 102.465C373.534 97.0764 370.492 90.0974 369.993 82.7172C369.495 75.3371 371.571 68.0124 375.867 61.9913C380.164 55.9701 386.415 51.625 393.556 49.6963C400.182 47.9069 407.193 48.3003 413.557 50.7939C414.379 51.116 414.736 52.0666 414.373 52.8716C414.011 53.6765 413.065 54.0304 412.241 53.7129C406.554 51.5206 400.301 51.1865 394.39 52.783C387.963 54.5188 382.337 58.4294 378.47 63.8484C374.603 69.2674 372.735 75.8596 373.183 82.5018C373.632 89.1439 376.37 95.425 380.93 100.275C385.491 105.125 391.592 108.243 398.194 109.099C404.796 109.955 411.49 108.495 417.137 104.968C422.783 101.442 427.032 96.0662 429.159 89.758C431.116 83.9559 431.167 77.695 429.328 71.8833C429.061 71.0415 429.473 70.1197 430.298 69.8071Z" fill="#06004A"/>
<path d="M440.325 62.5712C441.071 62.0777 441.296 61.0816 440.807 60.3331C436.789 54.179 431.476 49.0549 425.267 45.3571C418.608 41.3912 411.121 39.1865 403.459 38.9353C395.796 38.6841 388.191 40.394 381.307 43.9159C374.889 47.199 369.28 51.9638 364.9 57.8407C364.366 58.5583 364.528 59.5672 365.241 60.1078C365.996 60.6804 367.074 60.5071 367.645 59.75C371.696 54.3757 376.858 50.0149 382.754 46.9987C389.156 43.7233 396.229 42.1331 403.355 42.3667C410.482 42.6003 417.445 44.6507 423.637 48.339C429.344 51.7374 434.236 56.4314 437.957 62.0649C438.477 62.8529 439.538 63.0925 440.325 62.5712Z" fill="#06004A"/>
<path d="M363.643 99.4269C362.898 99.9204 362.673 100.916 363.162 101.665C367.18 107.819 372.493 112.943 378.701 116.641C385.36 120.607 392.848 122.812 400.51 123.063C408.173 123.314 415.778 121.604 422.662 118.082C429.08 114.799 434.689 110.034 439.068 104.157C439.603 103.44 439.441 102.431 438.728 101.89C437.972 101.318 436.894 101.491 436.324 102.248C432.272 107.622 427.11 111.983 421.215 114.999C414.812 118.275 407.74 119.865 400.613 119.631C393.487 119.398 386.524 117.347 380.331 113.659C374.625 110.261 369.733 105.567 366.012 99.9332C365.492 99.1451 364.431 98.9055 363.643 99.4269Z" fill="#06004A"/>
<path d="M51.0596 93.999V55.359H60.5996L71.0996 76.779L81.5396 55.359H91.0196V93.999H81.3596V71.799L73.7396 87.399H68.3996L60.7196 71.799V93.999H51.0596Z" fill="#06004A"/>
<path d="M112.354 94.599C107.394 94.599 103.414 93.379 100.414 90.939C97.4143 88.459 95.9143 84.739 95.9143 79.779C95.9143 75.259 97.1543 71.659 99.6343 68.979C102.114 66.299 105.834 64.959 110.794 64.959C115.314 64.959 118.814 66.119 121.294 68.439C123.774 70.759 125.014 73.879 125.014 77.799V82.899H104.854C105.294 84.779 106.314 86.099 107.914 86.859C109.554 87.579 111.774 87.939 114.574 87.939C116.134 87.939 117.714 87.799 119.314 87.519C120.954 87.239 122.314 86.879 123.394 86.439V92.739C122.034 93.379 120.414 93.839 118.534 94.119C116.654 94.439 114.594 94.599 112.354 94.599ZM104.854 77.319H116.614V76.059C116.614 74.659 116.194 73.559 115.354 72.759C114.514 71.919 113.094 71.499 111.094 71.499C108.774 71.499 107.154 71.979 106.234 72.939C105.314 73.859 104.854 75.319 104.854 77.319Z" fill="#06004A"/>
<path d="M141.867 94.599C139.107 94.599 136.747 94.159 134.787 93.279C132.827 92.399 131.327 90.959 130.287 88.959C129.247 86.919 128.727 84.199 128.727 80.799C128.727 77.359 129.327 74.479 130.527 72.159C131.727 69.799 133.367 68.019 135.447 66.819C137.567 65.579 139.987 64.959 142.707 64.959C144.187 64.959 145.507 65.119 146.667 65.439C147.867 65.759 148.987 66.239 150.027 66.879V53.559H159.687V93.999H151.347L150.807 91.599C149.647 92.599 148.347 93.359 146.907 93.879C145.467 94.359 143.787 94.599 141.867 94.599ZM144.627 87.579C146.747 87.579 148.547 86.859 150.027 85.419V73.899C148.667 72.659 146.927 72.039 144.807 72.039C142.767 72.039 141.207 72.819 140.127 74.379C139.087 75.899 138.567 78.059 138.567 80.859C138.567 83.579 139.067 85.379 140.067 86.259C141.107 87.139 142.627 87.579 144.627 87.579Z" fill="#06004A"/>
<path d="M165.786 93.999V55.359H175.326L185.826 76.779L196.266 55.359H205.746V93.999H196.086V71.799L188.466 87.399H183.126L175.446 71.799V93.999H165.786Z" fill="#06004A"/>
<path d="M212.237 61.059V53.799H222.737V61.059H212.237ZM213.017 93.999V72.699H208.817L209.657 65.559H222.677V93.999H213.017Z" fill="#06004A"/>
<path d="M228.833 93.999V65.559H237.833L238.133 68.019C239.293 67.219 240.753 66.519 242.513 65.919C244.273 65.279 246.153 64.959 248.153 64.959C251.833 64.959 254.513 65.839 256.193 67.599C257.873 69.359 258.713 72.079 258.713 75.759V93.999H249.053V76.539C249.053 74.939 248.713 73.799 248.033 73.119C247.353 72.439 246.133 72.099 244.373 72.099C243.333 72.099 242.273 72.339 241.193 72.819C240.113 73.299 239.213 73.899 238.493 74.619V93.999H228.833Z" fill="#06004A"/>
<path d="M276.105 94.599C273.345 94.599 270.985 94.159 269.025 93.279C267.065 92.399 265.565 90.959 264.525 88.959C263.485 86.919 262.965 84.199 262.965 80.799C262.965 77.359 263.565 74.479 264.765 72.159C265.965 69.799 267.605 68.019 269.685 66.819C271.805 65.579 274.225 64.959 276.945 64.959C278.425 64.959 279.745 65.119 280.905 65.439C282.105 65.759 283.225 66.239 284.265 66.879V53.559H293.925V93.999H285.585L285.045 91.599C283.885 92.599 282.585 93.359 281.145 93.879C279.705 94.359 278.025 94.599 276.105 94.599ZM278.865 87.579C280.985 87.579 282.785 86.859 284.265 85.419V73.899C282.905 72.659 281.165 72.039 279.045 72.039C277.005 72.039 275.445 72.819 274.365 74.379C273.325 75.899 272.805 78.059 272.805 80.859C272.805 83.579 273.305 85.379 274.305 86.259C275.345 87.139 276.865 87.579 278.865 87.579Z" fill="#06004A"/>
<path d="M314.678 94.599C309.718 94.599 305.738 93.379 302.738 90.939C299.738 88.459 298.238 84.739 298.238 79.779C298.238 75.259 299.478 71.659 301.958 68.979C304.438 66.299 308.158 64.959 313.118 64.959C317.638 64.959 321.138 66.119 323.618 68.439C326.098 70.759 327.338 73.879 327.338 77.799V82.899H307.178C307.618 84.779 308.638 86.099 310.238 86.859C311.878 87.579 314.098 87.939 316.898 87.939C318.458 87.939 320.038 87.799 321.638 87.519C323.278 87.239 324.638 86.879 325.718 86.439V92.739C324.358 93.379 322.738 93.839 320.858 94.119C318.978 94.439 316.918 94.599 314.678 94.599ZM307.178 77.319H318.938V76.059C318.938 74.659 318.518 73.559 317.678 72.759C316.838 71.919 315.418 71.499 313.418 71.499C311.098 71.499 309.478 71.979 308.558 72.939C307.638 73.859 307.178 75.319 307.178 77.319Z" fill="#06004A"/>
<path d="M342.518 94.599C340.238 94.599 338.078 94.439 336.038 94.119C333.998 93.799 332.378 93.399 331.178 92.919V85.539C332.578 86.139 334.198 86.599 336.038 86.919C337.878 87.239 339.518 87.399 340.958 87.399C342.678 87.399 343.918 87.319 344.678 87.159C345.478 86.999 345.878 86.559 345.878 85.839C345.878 85.039 345.238 84.439 343.958 84.039C342.678 83.639 340.918 83.059 338.678 82.299C336.078 81.379 334.098 80.319 332.738 79.119C331.418 77.879 330.758 76.059 330.758 73.659C330.758 70.859 331.798 68.719 333.878 67.239C335.998 65.719 339.358 64.959 343.958 64.959C345.758 64.959 347.538 65.099 349.298 65.379C351.058 65.659 352.498 65.979 353.618 66.339V73.599C352.498 73.079 351.218 72.699 349.778 72.459C348.338 72.219 347.038 72.099 345.878 72.099C344.398 72.099 343.138 72.199 342.098 72.399C341.098 72.559 340.598 72.979 340.598 73.659C340.598 74.419 341.158 74.959 342.278 75.279C343.398 75.559 345.018 76.039 347.138 76.719C349.378 77.399 351.118 78.139 352.358 78.939C353.598 79.699 354.478 80.619 354.998 81.699C355.518 82.779 355.778 84.139 355.778 85.779C355.778 88.619 354.658 90.799 352.418 92.319C350.178 93.839 346.878 94.599 342.518 94.599Z" fill="#06004A"/>
</svg>
