<svg width="15" height="365" viewBox="0 0 15 365" fill="none" xmlns="http://www.w3.org/2000/svg">
<path d="M7.50007 295C3.35793 295 7.02916e-05 291.642 7.04727e-05 287.5C7.06537e-05 283.358 3.35793 280 7.50007 280C11.6422 280 15.0001 283.358 15.0001 287.5C15.0001 291.642 11.6422 295 7.50007 295Z" fill="#41D1AF"/>
<path d="M7.50007 365C3.35793 365 7.1901e-05 361.642 7.2082e-05 357.5C7.22631e-05 353.358 3.35794 350 7.50007 350C11.6422 350 15.0001 353.358 15.0001 357.5C15.0001 361.642 11.6422 365 7.50007 365Z" fill="#41D1AF"/>
<path d="M7.50007 318C6.11936 318 5.00008 316.881 5.00008 315.5C5.00008 314.119 6.11936 313 7.50007 313C8.88079 313 10.0001 314.119 10.0001 315.5C10.0001 316.881 8.88079 318 7.50007 318Z" fill="#3171C1"/>
<path d="M7.50007 306C6.11936 306 5.00007 304.881 5.00007 303.5C5.00007 302.119 6.11936 301 7.50007 301C8.88078 301 10.0001 302.119 10.0001 303.5C10.0001 304.881 8.88078 306 7.50007 306Z" fill="#3171C1"/>
<path d="M7.50007 330C6.11936 330 5.00008 328.881 5.00008 327.5C5.00008 326.119 6.11936 325 7.50007 325C8.88079 325 10.0001 326.119 10.0001 327.5C10.0001 328.881 8.88079 330 7.50007 330Z" fill="#3171C1"/>
<path d="M7.50007 342C6.11936 342 5.00008 340.881 5.00008 339.5C5.00008 338.119 6.11936 337 7.50007 337C8.88079 337 10.0001 338.119 10.0001 339.5C10.0001 340.881 8.88079 342 7.50007 342Z" fill="#3171C1"/>
<path d="M7.50001 225C3.35787 225 7.34911e-06 221.642 7.53017e-06 217.5C7.71122e-06 213.358 3.35787 210 7.50001 210C11.6421 210 15 213.358 15 217.5C15 221.642 11.6421 225 7.50001 225Z" fill="#41D1AF"/>
<path d="M7.50007 295C3.35793 295 7.02916e-05 291.642 7.04727e-05 287.5C7.06537e-05 283.358 3.35793 280 7.50007 280C11.6422 280 15.0001 283.358 15.0001 287.5C15.0001 291.642 11.6422 295 7.50007 295Z" fill="#41D1AF"/>
<path d="M7.50001 248C6.1193 248 5.00001 246.881 5.00001 245.5C5.00001 244.119 6.1193 243 7.50001 243C8.88072 243 10 244.119 10 245.5C10 246.881 8.88072 248 7.50001 248Z" fill="#3171C1"/>
<path d="M7.50001 236C6.1193 236 5.00001 234.881 5.00001 233.5C5.00001 232.119 6.1193 231 7.50001 231C8.88072 231 10 232.119 10 233.5C10 234.881 8.88072 236 7.50001 236Z" fill="#3171C1"/>
<path d="M7.50001 260C6.1193 260 5.00001 258.881 5.00001 257.5C5.00001 256.119 6.1193 255 7.50001 255C8.88072 255 10 256.119 10 257.5C10 258.881 8.88072 260 7.50001 260Z" fill="#3171C1"/>
<path d="M7.50001 272C6.1193 272 5.00001 270.881 5.00001 269.5C5.00001 268.119 6.1193 267 7.50001 267C8.88072 267 10 268.119 10 269.5C10 270.881 8.88072 272 7.50001 272Z" fill="#3171C1"/>
<path d="M7.5 155C3.35786 155 1.49178e-06 151.642 1.67284e-06 147.5C1.8539e-06 143.358 3.35787 140 7.5 140C11.6421 140 15 143.358 15 147.5C15 151.642 11.6421 155 7.5 155Z" fill="#41D1AF"/>
<path d="M7.5 108C6.11929 108 5 106.881 5 105.5C5 104.119 6.11929 103 7.5 103C8.88071 103 10 104.119 10 105.5C10 106.881 8.88071 108 7.5 108Z" fill="#3171C1"/>
<path d="M7.5 96C6.11929 96 5 94.8807 5 93.5C5 92.1193 6.11929 91 7.5 91C8.88071 91 10 92.1193 10 93.5C10 94.8807 8.88071 96 7.5 96Z" fill="#3171C1"/>
<path d="M7.5 120C6.11929 120 5 118.881 5 117.5C5 116.119 6.11929 115 7.5 115C8.88071 115 10 116.119 10 117.5C10 118.881 8.88071 120 7.5 120Z" fill="#3171C1"/>
<path d="M7.5 132C6.11929 132 5 130.881 5 129.5C5 128.119 6.11929 127 7.5 127C8.88071 127 10 128.119 10 129.5C10 130.881 8.88071 132 7.5 132Z" fill="#3171C1"/>
<path d="M7.50001 225C3.35787 225 7.34911e-06 221.642 7.53017e-06 217.5C7.71122e-06 213.358 3.35787 210 7.50001 210C11.6421 210 15 213.358 15 217.5C15 221.642 11.6421 225 7.50001 225Z" fill="#41D1AF"/>
<path d="M7.5 178C6.11929 178 5 176.881 5 175.5C5 174.119 6.11929 173 7.5 173C8.88071 173 10 174.119 10 175.5C10 176.881 8.88071 178 7.5 178Z" fill="#3171C1"/>
<path d="M7.5 166C6.11929 166 5 164.881 5 163.5C5 162.119 6.11929 161 7.5 161C8.88071 161 10 162.119 10 163.5C10 164.881 8.88071 166 7.5 166Z" fill="#3171C1"/>
<path d="M7.5 190C6.11929 190 5 188.881 5 187.5C5 186.119 6.11929 185 7.5 185C8.88071 185 10 186.119 10 187.5C10 188.881 8.88071 190 7.5 190Z" fill="#3171C1"/>
<path d="M7.5 202C6.11929 202 5 200.881 5 199.5C5 198.119 6.11929 197 7.5 197C8.88071 197 10 198.119 10 199.5C10 200.881 8.88071 202 7.5 202Z" fill="#3171C1"/>
<path d="M7.5 15C3.35786 15 -1.81058e-07 11.6421 0 7.5C1.81058e-07 3.35786 3.35786 -1.81058e-07 7.5 0C11.6421 1.81058e-07 15 3.35786 15 7.5C15 11.6421 11.6421 15 7.5 15Z" fill="#41D1AF"/>
<path d="M7.5 85C3.35787 85 1.42828e-06 81.6421 1.60934e-06 77.5C1.7904e-06 73.3579 3.35787 70 7.5 70C11.6421 70 15 73.3579 15 77.5C15 81.6421 11.6421 85 7.5 85Z" fill="#41D1AF"/>
<path d="M7.5 38C6.11929 38 5.00001 36.8807 5.00001 35.5C5.00001 34.1193 6.11929 33 7.5 33C8.88072 33 10 34.1193 10 35.5C10 36.8807 8.88072 38 7.5 38Z" fill="#3171C1"/>
<path d="M7.5 26C6.11929 26 5 24.8807 5 23.5C5 22.1193 6.11929 21 7.5 21C8.88071 21 10 22.1193 10 23.5C10 24.8807 8.88071 26 7.5 26Z" fill="#3171C1"/>
<path d="M7.5 50C6.11929 50 5.00001 48.8807 5.00001 47.5C5.00001 46.1193 6.11929 45 7.5 45C8.88072 45 10 46.1193 10 47.5C10 48.8807 8.88072 50 7.5 50Z" fill="#3171C1"/>
<path d="M7.5 62C6.11929 62 5.00001 60.8807 5.00001 59.5C5.00001 58.1193 6.11929 57 7.5 57C8.88072 57 10 58.1193 10 59.5C10 60.8807 8.88072 62 7.5 62Z" fill="#3171C1"/>
</svg>
