<svg width="50" height="50" viewBox="0 0 50 50" fill="none" xmlns="http://www.w3.org/2000/svg">
<g filter="url(#filter0_i_283_1072)">
<circle cx="25" cy="25" r="25" fill="#41D1AF"/>
</g>
<g clip-path="url(#clip0_283_1072)">
<path d="M14.7305 17.318C14.7305 16.6029 15.3102 16.0232 16.0253 16.0232H16.9879C17.6545 16.0232 17.9878 16.0232 18.2615 15.8861C18.3855 15.8241 18.4986 15.7425 18.5967 15.6445C18.8133 15.4282 18.9187 15.112 19.1295 14.4796L19.3196 13.9094C19.6044 13.0548 19.7469 12.6275 20.086 12.3831C20.4251 12.1387 20.8755 12.1387 21.7764 12.1387H28.402C29.3028 12.1387 29.7533 12.1387 30.0924 12.3831C30.4314 12.6275 30.5738 13.0548 30.8587 13.9094L31.0488 14.4796C31.2596 15.112 31.365 15.4282 31.5816 15.6445C31.6796 15.7425 31.7929 15.8241 31.9169 15.8861C32.1906 16.0232 32.5239 16.0232 33.1905 16.0232H34.153C34.8682 16.0232 35.4479 16.6029 35.4479 17.318C35.4479 18.0331 34.8682 18.6129 34.153 18.6129H16.0253C15.3102 18.6129 14.7305 18.0331 14.7305 17.318Z" fill="#F0F5FE"/>
<path d="M16.3379 31.4045C16.8064 34.567 17.0406 36.1483 18.134 37.0916C19.2275 38.035 20.826 38.035 24.023 38.035H26.1553C29.3524 38.035 30.9509 38.035 32.0443 37.0916C33.1378 36.1483 33.372 34.567 33.8405 31.4045L35.4479 20.5547H33.5056L33.1967 22.4969L31.9192 31.1199C31.6776 32.751 31.5193 33.7943 31.3061 34.5577C31.1076 35.2686 30.9226 35.4941 30.7756 35.621C30.6285 35.7479 30.3782 35.8977 29.6458 35.9901C28.8595 36.0891 27.8043 36.0927 26.1553 36.0927H24.023C22.374 36.0927 21.3189 36.0891 20.5325 35.9901C19.8002 35.8977 19.5499 35.7479 19.4028 35.621C19.2557 35.4941 19.0708 35.2686 18.8723 34.5577C18.659 33.7943 18.5008 32.751 18.2591 31.1199L16.9817 22.4969L16.6727 20.5547H14.7305L16.3379 31.4045Z" fill="#F0F5FE"/>
<path fill-rule="evenodd" clip-rule="evenodd" d="M22.8227 24.4395C23.359 24.4395 23.7938 24.8742 23.7938 25.4106V31.2374C23.7938 31.7737 23.359 32.2085 22.8227 32.2085C22.2864 32.2085 21.8516 31.7737 21.8516 31.2374V25.4106C21.8516 24.8742 22.2864 24.4395 22.8227 24.4395Z" fill="#F0F5FE"/>
<path fill-rule="evenodd" clip-rule="evenodd" d="M27.3539 24.4395C27.8903 24.4395 28.3251 24.8742 28.3251 25.4106V31.2374C28.3251 31.7737 27.8903 32.2085 27.3539 32.2085C26.8176 32.2085 26.3828 31.7737 26.3828 31.2374V25.4106C26.3828 24.8742 26.8176 24.4395 27.3539 24.4395Z" fill="#F0F5FE"/>
</g>
<defs>
<filter id="filter0_i_283_1072" x="0" y="0" width="50" height="54" filterUnits="userSpaceOnUse" color-interpolation-filters="sRGB">
<feFlood flood-opacity="0" result="BackgroundImageFix"/>
<feBlend mode="normal" in="SourceGraphic" in2="BackgroundImageFix" result="shape"/>
<feColorMatrix in="SourceAlpha" type="matrix" values="0 0 0 0 0 0 0 0 0 0 0 0 0 0 0 0 0 0 127 0" result="hardAlpha"/>
<feOffset dy="4"/>
<feGaussianBlur stdDeviation="2"/>
<feComposite in2="hardAlpha" operator="arithmetic" k2="-1" k3="1"/>
<feColorMatrix type="matrix" values="0 0 0 0 0.784314 0 0 0 0 0.827451 0 0 0 0 0.976471 0 0 0 0.6 0"/>
<feBlend mode="normal" in2="shape" result="effect1_innerShadow_283_1072"/>
</filter>
<clipPath id="clip0_283_1072">
<rect width="25.8968" height="25.8968" fill="white" transform="translate(12.1406 12.1387)"/>
</clipPath>
</defs>
</svg>
