<svg width="88" height="88" viewBox="0 0 88 88" fill="none" xmlns="http://www.w3.org/2000/svg">
<rect width="88" height="88" fill="white"/>
<path d="M24.8008 61.1053C24.8008 54.3092 30.3102 48.7998 37.1064 48.7998H50.8953C57.6913 48.7998 63.2008 54.3092 63.2008 61.1053C63.2008 63.9088 61.3029 66.3428 58.5373 66.801C55.0758 67.3746 49.9403 67.9998 44.0008 67.9998C38.0614 67.9998 32.9257 67.3746 29.4643 66.801C26.6986 66.3428 24.8008 63.9088 24.8008 61.1053Z" fill="#06004A"/>
<path d="M32 32C32 25.3726 37.3726 20 44 20C50.6274 20 56 25.3726 56 32C56 38.6274 50.6274 44 44 44C37.3726 44 32 38.6274 32 32Z" fill="#06004A"/>
</svg>
