<svg width="48" height="48" viewBox="0 0 48 48" fill="none" xmlns="http://www.w3.org/2000/svg">
<path d="M4.80042 41.1053C4.80042 34.3092 10.3098 28.7998 17.106 28.7998H30.8949C37.691 28.7998 43.2004 34.3092 43.2004 41.1053C43.2004 43.9088 41.3025 46.3428 38.537 46.801C35.0755 47.3746 29.9399 47.9998 24.0004 47.9998C18.061 47.9998 12.9254 47.3746 9.46395 46.801C6.69824 46.3428 4.80042 43.9088 4.80042 41.1053Z" fill="#06004A"/>
<path d="M11.9996 12C11.9996 5.37259 17.3722 0 23.9996 0C30.627 0 35.9996 5.37259 35.9996 12C35.9996 18.6274 30.627 24 23.9996 24C17.3722 24 11.9996 18.6274 11.9996 12Z" fill="#06004A"/>
</svg>
