<svg width="48" height="48" viewBox="0 0 48 48" fill="none" xmlns="http://www.w3.org/2000/svg">
<path d="M24 9.84375C14.4562 9.84375 6.3375 15.6938 3 24C6.3375 32.3062 14.4562 38.1562 24 38.1562C33.5438 38.1562 41.6625 32.3062 45 24C41.6625 15.6938 33.5438 9.84375 24 9.84375ZM24 33.4406C18.75 33.4406 14.4562 29.1938 14.4562 24C14.4562 18.8062 18.75 14.5594 24 14.5594C29.25 14.5594 33.5437 18.8062 33.5437 24C33.5437 29.1938 29.25 33.4406 24 33.4406ZM24 18.3375C20.85 18.3375 18.2719 20.8875 18.2719 24C18.2719 27.1125 20.85 29.6625 24 29.6625C27.15 29.6625 29.7281 27.1125 29.7281 24C29.7281 20.8875 27.15 18.3375 24 18.3375Z" fill="#425667"/>
</svg>
