<svg width="48" height="48" viewBox="0 0 48 48" fill="none" xmlns="http://www.w3.org/2000/svg">
<path d="M24.0094 13.575C29.2781 13.575 33.5625 17.8219 33.5625 23.0531C33.5625 24.2812 33.3188 25.4437 32.8781 26.5219L38.4563 32.0531C41.3438 29.6625 43.6125 26.5781 45.0094 23.0531C41.7 14.7375 33.5437 8.84063 23.9906 8.84063C21.3187 8.84063 18.7594 9.31875 16.3875 10.1625L20.5125 14.2594C21.6 13.8281 22.7719 13.575 24.0094 13.575ZM4.9125 8.40937L9.27188 12.7313L10.1531 13.6031C6.975 16.0406 4.49062 19.3031 3 23.0531C6.3 31.3687 14.4563 37.2656 24.0094 37.2656C26.9719 37.2656 29.7937 36.6937 32.3719 35.6719L33.1781 36.4688L38.775 42L41.2031 39.5906L7.33125 6L4.9125 8.40937ZM15.4688 18.8812L18.4313 21.8156C18.3375 22.2094 18.2812 22.6313 18.2812 23.0438C18.2812 26.1844 20.8406 28.725 24.0094 28.725C24.4313 28.725 24.8531 28.6687 25.2469 28.575L28.2094 31.5094C26.9344 32.1375 25.5188 32.5125 24.0094 32.5125C18.7406 32.5125 14.4562 28.2656 14.4562 23.0344C14.4562 21.5531 14.8406 20.1562 15.4688 18.8812ZM23.7 17.4094L29.7188 23.3812L29.7562 23.0812C29.7562 19.9406 27.1969 17.4 24.0281 17.4L23.7 17.4094Z" fill="#425667"/>
</svg>
