<svg width="20" height="20" viewBox="0 0 20 20" fill="none" xmlns="http://www.w3.org/2000/svg">
<g clip-path="url(#clip0_172_2063)">
<path d="M10 0C4.4768 0 0 4.47813 0 10.0005C0 15.5232 4.4768 20 10 20C15.5232 20 20 15.5232 20 10.0005C20 4.47813 15.5232 0 10 0ZM11.0203 15.5627C11.0203 15.7547 10.8645 15.9104 10.6725 15.9104H9.32747C9.13547 15.9104 8.97973 15.7549 8.97973 15.5627V9.10453C8.97973 8.91253 9.13547 8.7568 9.32747 8.7568H10.6725C10.8645 8.7568 11.0203 8.91227 11.0203 9.10453V15.5627ZM9.99173 7.31547C9.33307 7.31547 8.78693 6.76933 8.78693 6.0944C8.78672 5.93612 8.81774 5.77936 8.87821 5.63309C8.93869 5.48683 9.02742 5.35393 9.13934 5.24201C9.25126 5.13009 9.38416 5.04135 9.53043 4.98088C9.6767 4.92041 9.83346 4.88939 9.99173 4.8896C10.6667 4.8896 11.2128 5.41947 11.2128 6.0944C11.2129 6.25478 11.1814 6.41361 11.1201 6.56181C11.0587 6.71 10.9688 6.84465 10.8554 6.95806C10.742 7.07147 10.6073 7.16141 10.4591 7.22273C10.3109 7.28406 10.1521 7.31557 9.99173 7.31547Z" fill="#3272C2"/>
</g>
<defs>
<clipPath id="clip0_172_2063">
<rect width="20" height="20" fill="white"/>
</clipPath>
</defs>
</svg>
