<svg width="20" height="21" viewBox="0 0 20 21" fill="none" xmlns="http://www.w3.org/2000/svg">
<g clip-path="url(#clip0_150_226)">
<path d="M4 6.75C4 6.33579 4.33579 6 4.75 6H15.25C15.6642 6 16 6.33579 16 6.75C16 7.16421 15.6642 7.5 15.25 7.5H4.75C4.33579 7.5 4 7.16421 4 6.75Z" fill="#06004A"/>
<path d="M4 10.75C4 10.3358 4.33579 10 4.75 10H11.25C11.6642 10 12 10.3358 12 10.75C12 11.1642 11.6642 11.5 11.25 11.5H4.75C4.33579 11.5 4 11.1642 4 10.75Z" fill="#06004A"/>
<path fill-rule="evenodd" clip-rule="evenodd" d="M0 8.5C0 5.69108 0 4.28661 0.674122 3.27772C0.965956 2.84096 1.34096 2.46596 1.77772 2.17412C2.78661 1.5 4.19108 1.5 7 1.5H13C15.8089 1.5 17.2134 1.5 18.2223 2.17412C18.659 2.46596 19.034 2.84096 19.3259 3.27772C20 4.28661 20 5.69108 20 8.5V9.5C20 11.3638 20 12.2956 19.6955 13.0307C19.2895 14.0108 18.5108 14.7895 17.5307 15.1955C16.7956 15.5 15.8638 15.5 14 15.5C13.3406 15.5 13.0109 15.5 12.6926 15.5517C12.2682 15.6205 11.8577 15.7573 11.4769 15.9569C11.1913 16.1065 10.9275 16.3044 10.4 16.7L7.2 19.1C5.80372 20.1472 5.10557 20.6708 4.55279 20.3944C4 20.118 4 19.2454 4 17.5V16.3C4 15.8582 3.64183 15.5 3.2 15.5C1.43269 15.5 0 14.0673 0 12.3V8.5ZM7 3H13C14.4357 3 15.3995 3.00181 16.1343 3.07656C16.8441 3.14876 17.172 3.2764 17.3889 3.42133C17.6619 3.60372 17.8963 3.8381 18.0787 4.11107C18.2236 4.32798 18.3512 4.65592 18.4234 5.36566C18.4982 6.10047 18.5 7.06432 18.5 8.5V9.5C18.5 10.4524 18.4992 11.0916 18.4654 11.5865C18.4326 12.068 18.3736 12.3024 18.3097 12.4567C18.056 13.0693 17.5693 13.556 16.9567 13.8097C16.8024 13.8736 16.568 13.9326 16.0865 13.9654C15.5916 13.9992 14.9524 14 14 14H13.9029C13.3376 13.9998 12.8926 13.9996 12.4523 14.071C11.8688 14.1657 11.3044 14.3539 10.7807 14.6282C10.3857 14.8352 10.0298 15.1023 9.5777 15.4417L6.3 17.9C5.98085 18.1394 5.72137 18.333 5.50554 18.4889C5.50074 18.2227 5.5 17.8989 5.5 17.5V16.3C5.5 15.0297 4.47026 14 3.2 14C2.26112 14 1.5 13.2389 1.5 12.3V8.5C1.5 7.06432 1.50181 6.10047 1.57656 5.36566C1.64876 4.65592 1.7764 4.32798 1.92133 4.11107C2.10372 3.8381 2.3381 3.60372 2.61107 3.42133C2.82798 3.2764 3.15592 3.14876 3.86566 3.07656C4.60047 3.00181 5.56432 3 7 3Z" fill="#06004A"/>
</g>
<defs>
<clipPath id="clip0_150_226">
<rect width="20" height="20" fill="white" transform="translate(0 0.5)"/>
</clipPath>
</defs>
</svg>
