<svg width="20" height="21" viewBox="0 0 20 21" fill="none" xmlns="http://www.w3.org/2000/svg">
<g clip-path="url(#clip0_150_197)">
<path fill-rule="evenodd" clip-rule="evenodd" d="M17.3709 10.2676C17.3288 10.2253 17.2843 10.1808 17.2373 10.1337L13.6515 6.54791C13.3586 6.25502 13.3586 5.78015 13.6515 5.48725C13.9444 5.19436 14.4192 5.19436 14.7121 5.48725L18.2979 9.07304C18.3085 9.08362 18.319 9.09416 18.3295 9.10468C18.6356 9.41069 18.9163 9.69126 19.1138 9.95021C19.3314 10.2354 19.5176 10.5806 19.5176 11.0176C19.5176 11.4546 19.3314 11.7998 19.1138 12.085C18.9163 12.3439 18.6356 12.6245 18.3295 12.9305C18.319 12.941 18.3085 12.9515 18.2979 12.9621L14.7121 16.5479C14.4192 16.8408 13.9444 16.8408 13.6515 16.5479C13.3586 16.255 13.3586 15.7801 13.6515 15.4873L17.2373 11.9015C17.2843 11.8544 17.3288 11.8098 17.3709 11.7676L6.9818 11.7676C6.5676 11.7676 6.2318 11.4318 6.2318 11.0176C6.2318 10.6034 6.5676 10.2676 6.9818 10.2676L17.3709 10.2676Z" fill="#06004A"/>
<path fill-rule="evenodd" clip-rule="evenodd" d="M1.23242 4.51758C1.64662 4.51758 1.98242 4.85337 1.98242 5.26758L1.98242 17.2676C1.98242 17.6818 1.64662 18.0176 1.23242 18.0176C0.818221 18.0176 0.482421 17.6818 0.482421 17.2676L0.482422 5.26758C0.482422 4.85337 0.818222 4.51758 1.23242 4.51758Z" fill="#06004A"/>
</g>
<defs>
<clipPath id="clip0_150_197">
<rect width="20" height="20" fill="white" transform="translate(20 0.5) rotate(90)"/>
</clipPath>
</defs>
</svg>
