<svg width="19" height="19" viewBox="0 0 19 19" fill="none" xmlns="http://www.w3.org/2000/svg">
<path d="M1.90039 16.2713C1.90039 13.5812 4.0812 11.4004 6.77136 11.4004H12.2295C14.9196 11.4004 17.1004 13.5812 17.1004 16.2713C17.1004 17.381 16.3491 18.3445 15.2544 18.5259C13.8843 18.7529 11.8515 19.0004 9.50039 19.0004C7.14937 19.0004 5.11652 18.7529 3.74637 18.5259C2.65161 18.3445 1.90039 17.381 1.90039 16.2713Z" fill="#2367BB"/>
<path d="M4.75 4.75C4.75 2.12665 6.87665 0 9.5 0C12.1233 0 14.25 2.12665 14.25 4.75C14.25 7.37335 12.1233 9.5 9.5 9.5C6.87665 9.5 4.75 7.37335 4.75 4.75Z" fill="#2367BB"/>
</svg>
