<svg width="24" height="19" viewBox="0 0 24 19" fill="none" xmlns="http://www.w3.org/2000/svg">
<path fill-rule="evenodd" clip-rule="evenodd" d="M22.2 11.2812V9.75068C22.2 8.30973 22.1873 7.90571 22.1155 7.61317C21.8509 6.53275 20.9984 5.68917 19.9067 5.42729C19.6111 5.35639 19.2028 5.34375 17.7467 5.34375H16.5634C14.61 5.34375 12.7859 4.37768 11.7023 2.76931C11.2865 2.15202 10.5864 1.78125 9.83666 1.78125H7.81666C6.37685 1.78125 5.4104 1.78277 4.66746 1.84565C3.94706 1.90661 3.60463 2.01528 3.3786 2.13562C2.86099 2.41121 2.43659 2.83119 2.1581 3.34341C2.0365 3.56708 1.92668 3.90595 1.86508 4.61884C1.80154 5.35405 1.8 6.31042 1.8 7.73523V9.5C1.8 11.7895 1.80383 13.3274 1.95968 14.4747C2.10858 15.5706 2.36592 16.0397 2.67868 16.3493C2.99144 16.6587 3.46543 16.9133 4.57294 17.0607C5.73223 17.2149 7.28638 17.2188 9.6 17.2188H16.2C17.6317 17.2188 18.5928 17.2172 19.3318 17.1551C20.0483 17.0948 20.3892 16.9872 20.6142 16.8682C21.1375 16.5914 21.566 16.1673 21.8458 15.6495C21.966 15.4268 22.0747 15.0894 22.1357 14.3804C22.1984 13.6491 22.2 12.6981 22.2 11.2812ZM0.572959 2.49946C0 3.55331 0 4.94728 0 7.73523V9.5C0 13.9783 0 16.2176 1.40588 17.6087C2.81178 19 5.07451 19 9.6 19H16.2C19.0015 19 20.4023 19 21.4627 18.4391C22.3 17.9963 22.9858 17.3177 23.4332 16.4892C24 15.4398 24 14.0536 24 11.2812V9.75068C24 8.41359 24 7.74505 23.8649 7.19357C23.4415 5.46489 22.0776 4.11517 20.3308 3.69618C19.7735 3.5625 19.0979 3.5625 17.7467 3.5625H16.5634C15.2118 3.5625 13.9496 2.89408 13.2 1.78125C12.4504 0.66842 11.1882 0 9.83666 0H7.81666C4.99936 0 3.59071 -1.06171e-07 2.52577 0.566996C1.69758 1.00793 1.01854 1.6799 0.572959 2.49946Z" fill="#06004A"/>
</svg>
