<svg width="24" height="20" viewBox="0 0 24 20" fill="none" xmlns="http://www.w3.org/2000/svg">
<path d="M0 8.21705C0 5.39975 0 3.9911 0.572959 2.92616C1.01854 2.09797 1.69758 1.41893 2.52577 0.973355C3.59071 0.400391 4.99936 0.400391 7.81666 0.400391H9.83666C11.1882 0.400391 12.4504 1.07585 13.2 2.20039C13.9496 3.32493 15.2118 4.00039 16.5634 4.00039H17.7467C19.0979 4.00039 19.7735 4.00039 20.3308 4.13547C22.0776 4.55888 23.4415 5.9228 23.8649 7.66968C24 8.22697 24 8.90255 24 10.2537V11.8004C24 14.6019 24 16.0027 23.4332 17.0631C22.9858 17.9004 22.3 18.5862 21.4627 19.0336C20.4023 19.6004 19.0015 19.6004 16.2 19.6004H9.6C5.07451 19.6004 2.81178 19.6004 1.40588 18.1945C0 16.7887 0 14.5258 0 10.0004V8.21705Z" fill="#3272C2"/>
</svg>
