<svg width="20" height="21" viewBox="0 0 20 21" fill="none" xmlns="http://www.w3.org/2000/svg">
<g clip-path="url(#clip0_19_2041)">
<path fill-rule="evenodd" clip-rule="evenodd" d="M11.7695 1.54133C10.9984 0.152889 9.00162 0.152891 8.23049 1.54133L7.89891 2.13833C7.44192 2.96115 6.47806 3.36039 5.5731 3.10171L4.91649 2.91403C3.38944 2.47753 1.97753 3.88945 2.41403 5.4165L2.60171 6.0731C2.86039 6.97806 2.46115 7.94192 1.63833 8.39891L1.04133 8.73049C-0.347111 9.50163 -0.347108 11.4984 1.04133 12.2695L1.63833 12.6011C2.46115 13.0581 2.86039 14.0219 2.60171 14.9269L2.41403 15.5835C1.97753 17.1106 3.38945 18.5225 4.9165 18.086L5.5731 17.8983C6.47806 17.6396 7.44192 18.0388 7.89891 18.8617L8.23049 19.4587C9.00163 20.8471 10.9984 20.8471 11.7695 19.4587L12.1011 18.8617C12.5581 18.0388 13.5219 17.6396 14.4269 17.8983L15.0835 18.086C16.6106 18.5225 18.0225 17.1106 17.586 15.5835L17.3983 14.9269C17.1396 14.0219 17.5388 13.0581 18.3617 12.6011L18.9587 12.2695C20.3471 11.4984 20.3471 9.50162 18.9587 8.73049L18.3617 8.39891C17.5388 7.94192 17.1396 6.97806 17.3983 6.0731L17.586 5.41649C18.0225 3.88944 16.6106 2.47753 15.0835 2.91403L14.4269 3.10172C13.5219 3.36039 12.5581 2.96115 12.1011 2.13833L11.7695 1.54133ZM10 13.5C11.6569 13.5 13 12.1569 13 10.5C13 8.84315 11.6569 7.5 10 7.5C8.34315 7.5 7 8.84315 7 10.5C7 12.1569 8.34315 13.5 10 13.5Z" fill="#2367BB"/>
</g>
<defs>
<clipPath id="clip0_19_2041">
<rect width="20" height="20" fill="white" transform="translate(0 0.5)"/>
</clipPath>
</defs>
</svg>
