<svg width="20" height="21" viewBox="0 0 20 21" fill="none" xmlns="http://www.w3.org/2000/svg">
<g clip-path="url(#clip0_150_222)">
<path fill-rule="evenodd" clip-rule="evenodd" d="M1.5441 7.36633C1.50081 8.00071 1.5 8.81462 1.5 10V11C1.5 12.1854 1.50081 12.9993 1.5441 13.6337C1.58646 14.2546 1.66445 14.5932 1.76642 14.8394C2.12165 15.697 2.80301 16.3784 3.66061 16.7336C3.9068 16.8356 4.24542 16.9135 4.86633 16.9559C5.50071 16.9992 6.31462 17 7.5 17C8.68538 17 9.49929 16.9992 10.1337 16.9559C10.7546 16.9135 11.0932 16.8356 11.3394 16.7336C12.197 16.3783 12.8783 15.697 13.2336 14.8394C13.3356 14.5932 13.4135 14.2546 13.4559 13.6337C13.4992 12.9993 13.5 12.1854 13.5 11V10C13.5 8.81462 13.4992 8.00071 13.4559 7.36633C13.4135 6.74542 13.3356 6.4068 13.2336 6.16061C12.8784 5.30301 12.197 4.62165 11.3394 4.26642C11.0932 4.16445 10.7546 4.08646 10.1337 4.0441C9.49929 4.00081 8.68538 4 7.5 4C6.31462 4 5.50071 4.00081 4.86633 4.0441C4.24542 4.08646 3.9068 4.16445 3.66061 4.26642C2.80301 4.62165 2.12165 5.30301 1.76642 6.16061C1.66445 6.4068 1.58646 6.74542 1.5441 7.36633ZM0.380602 5.58658C0 6.50544 0 7.67029 0 10V11C0 13.3297 0 14.4946 0.380602 15.4134C0.888072 16.6386 1.86144 17.6119 3.08658 18.1194C4.00544 18.5 5.17029 18.5 7.5 18.5C9.82971 18.5 10.9946 18.5 11.9134 18.1194C13.1386 17.6119 14.1119 16.6386 14.6194 15.4134C15 14.4946 15 13.3297 15 11V10C15 7.67029 15 6.50544 14.6194 5.58658C14.1119 4.36144 13.1386 3.38807 11.9134 2.8806C10.9946 2.5 9.82971 2.5 7.5 2.5C5.17029 2.5 4.00544 2.5 3.08658 2.8806C1.86144 3.38807 0.888072 4.36144 0.380602 5.58658Z" fill="#06004A"/>
<path fill-rule="evenodd" clip-rule="evenodd" d="M18.5 11.6839V9.31603C18.5 8.30984 18.4984 7.66367 18.4538 7.19644C18.4261 6.90651 18.3883 6.78412 18.376 6.74953C18.3003 6.66305 18.1969 6.60532 18.0836 6.5861C18.0477 6.59377 17.9236 6.62573 17.6622 6.75412C17.2409 6.96102 16.6898 7.29828 15.8328 7.82562C15.5284 8.01294 15.3563 8.11962 15.2312 8.20739C15.1542 8.26148 15.1248 8.28824 15.1173 8.29571C15.0765 8.34424 15.0453 8.4001 15.0254 8.4603C15.0229 8.47061 15.0155 8.50961 15.0098 8.60359C15.0006 8.75609 15 8.95862 15 9.31603V11.6839C15 12.0413 15.0006 12.2438 15.0098 12.3963C15.0155 12.4903 15.0229 12.5293 15.0254 12.5396C15.0453 12.5998 15.0765 12.6556 15.1173 12.7042C15.1248 12.7116 15.1542 12.7384 15.2312 12.7925C15.3563 12.8803 15.5284 12.9869 15.8328 13.1743C16.6898 13.7016 17.2409 14.0389 17.6622 14.2458C17.9236 14.3742 18.0477 14.4061 18.0836 14.4138C18.1969 14.3946 18.3003 14.3368 18.376 14.2503C18.3883 14.2158 18.4261 14.0934 18.4538 13.8034C18.4984 13.3362 18.5 12.69 18.5 11.6839ZM13.6006 7.99128C13.5 8.29633 13.5 8.63623 13.5 9.31603V11.6839C13.5 12.3637 13.5 12.7036 13.6006 13.0086C13.6806 13.2513 13.8064 13.4764 13.9712 13.6718C14.1783 13.9173 14.4677 14.0955 15.0467 14.4517C16.7078 15.474 17.5383 15.9851 18.2228 15.9084C18.7571 15.8485 19.2449 15.5759 19.576 15.1522C20 14.6095 20 13.6343 20 11.6839V9.31603C20 7.36559 20 6.39037 19.576 5.84768C19.2449 5.42396 18.7571 5.15141 18.2228 5.09151C17.5383 5.01481 16.7078 5.52592 15.0467 6.54814C14.4677 6.90441 14.1783 7.08255 13.9712 7.32809C13.8064 7.52344 13.6806 7.74857 13.6006 7.99128Z" fill="#06004A"/>
</g>
<defs>
<clipPath id="clip0_150_222">
<rect width="20" height="20" fill="white" transform="translate(0 0.5)"/>
</clipPath>
</defs>
</svg>
